<svg width="96" height="97" viewBox="0 0 96 97" fill="none" xmlns="http://www.w3.org/2000/svg">
<path d="M48.0001 96.0151C72.8529 96.0151 93 76.5931 93 52.6348C93 28.6765 72.8529 9.25439 48.0001 9.25439C23.1474 9.25439 3.00024 28.6765 3.00024 52.6348C3.00024 76.5931 23.1474 96.0151 48.0001 96.0151Z" fill="#EFAF00"/>
<path d="M48.0001 90.5371C72.8529 90.5371 93 71.1151 93 47.1567C93 23.1984 72.8529 3.77637 48.0001 3.77637C23.1474 3.77637 3.00024 23.1984 3.00024 47.1567C3.00024 71.1151 23.1474 90.5371 48.0001 90.5371Z" fill="#F4F1ED" stroke="#EFAF00" stroke-width="6" stroke-linecap="round" stroke-linejoin="round"/>
<path d="M35.9103 60.0272H66.4737L72.5937 40.9446H29.8158L35.9103 60.0272Z" fill="#FFBF00"/>
<path d="M14.47 32.2346H20.931C21.8948 32.2347 22.8333 32.5323 23.6089 33.0839C24.3845 33.6354 24.9565 34.4119 25.2412 35.2996L32.941 59.3042H64.0585L65.5957 65.3108C65.7108 65.7611 65.7181 66.2307 65.617 66.6841C65.516 67.1375 65.3093 67.5628 65.0125 67.9278C64.7158 68.2928 64.3367 68.5879 63.9042 68.7908C63.4716 68.9937 62.9968 69.099 62.5157 69.0989H34.2366" stroke="#070707" stroke-width="6" stroke-linecap="round" stroke-linejoin="round"/>
<path d="M32.9157 59.3043H63.9621L70.3919 39.2603H26.5115L32.9157 59.3043Z" stroke="#070707" stroke-width="6" stroke-linecap="round" stroke-linejoin="round"/>
<path d="M52.5487 59.3043L58.9785 39.2603" stroke="#070707" stroke-width="6" stroke-linecap="round" stroke-linejoin="round"/>
<path d="M45.6162 59.3043L39.1864 39.2603" stroke="#070707" stroke-width="6" stroke-linecap="round" stroke-linejoin="round"/>
<path d="M29.5182 48.6304H67.3894" stroke="#070707" stroke-width="6" stroke-linecap="round" stroke-linejoin="round"/>
<path d="M37.8994 77.4692C39.6334 77.4692 41.039 76.1142 41.039 74.4426C41.039 72.7711 39.6334 71.416 37.8994 71.416C36.1654 71.416 34.7598 72.7711 34.7598 74.4426C34.7598 76.1142 36.1654 77.4692 37.8994 77.4692Z" stroke="#070707" stroke-width="6" stroke-linecap="round" stroke-linejoin="round"/>
<path d="M60.7288 77.4692C62.4628 77.4692 63.8685 76.1142 63.8685 74.4426C63.8685 72.7711 62.4628 71.416 60.7288 71.416C58.9949 71.416 57.5892 72.7711 57.5892 74.4426C57.5892 76.1142 58.9949 77.4692 60.7288 77.4692Z" stroke="#070707" stroke-width="6" stroke-linecap="round" stroke-linejoin="round"/>
<path d="M48.3877 16.3374V31.8319" stroke="#070707" stroke-width="6" stroke-linecap="round" stroke-linejoin="round"/>
<path d="M40.5439 25.146L48.3147 32.6372L55.6763 25.5404" stroke="#070707" stroke-width="6" stroke-linecap="round" stroke-linejoin="round"/>
</svg>
